<svg width="21" height="21" viewBox="0 0 21 21" fill="none" xmlns="http://www.w3.org/2000/svg">
<path d="M15.6909 9.57206C15.5846 9.33712 15.351 9.1875 15.0937 9.1875H12.4687V0.65625C12.4687 0.294 12.1747 0 11.8125 0H9.18746C8.82521 0 8.53121 0.294 8.53121 0.65625V9.1875H5.90621C5.64896 9.1875 5.41533 9.33844 5.30902 9.57206C5.2014 9.807 5.2434 10.0813 5.41271 10.2756L10.0065 15.5256C10.1311 15.6686 10.311 15.75 10.5 15.75C10.689 15.75 10.8688 15.6673 10.9935 15.5256L15.5872 10.2756C15.7578 10.0826 15.7972 9.807 15.6909 9.57206Z" fill="#FDB71A"/>
<path d="M17.7188 14.4375V18.375H3.28125V14.4375H0.65625V19.6875C0.65625 20.4133 1.24425 21 1.96875 21H19.0312C19.7571 21 20.3438 20.4133 20.3438 19.6875V14.4375H17.7188Z" fill="#FDB71A"/>
</svg>
