<svg width="25" height="25" viewBox="0 0 25 25" fill="none" xmlns="http://www.w3.org/2000/svg"><path d="M12.5 0C5.598 0 0 5.598 0 12.5S5.598 25 12.5 25 25 19.402 25 12.5 19.402 0 12.5 0zm5.707 9.746c.006.123.009.247.009.371 0 3.791-2.886 8.163-8.164 8.163a8.12 8.12 0 01-4.397-1.289 5.757 5.757 0 004.248-1.188 2.872 2.872 0 01-2.681-1.993 2.861 2.861 0 001.296-.05 2.87 2.87 0 01-2.302-2.811v-.037c.387.215.83.344 1.3.359a2.866 2.866 0 01-.888-3.83 8.146 8.146 0 005.914 2.997 2.87 2.87 0 014.89-2.617 5.755 5.755 0 001.82-.696 2.88 2.88 0 01-1.261 1.587 5.722 5.722 0 001.647-.452 5.831 5.831 0 01-1.43 1.486z" fill="#fff"/></svg>