<svg width="25" height="25" viewBox="0 0 25 25" fill="none" xmlns="http://www.w3.org/2000/svg"><path d="M10.943 14.842L15.01 12.5l-4.066-2.342v4.684z" fill="#fff"/><path d="M12.5 0C5.598 0 0 5.598 0 12.5S5.598 25 12.5 25 25 19.402 25 12.5 19.402 0 12.5 0zm7.81 12.513s0 2.535-.321 3.757a1.957 1.957 0 01-1.377 1.377c-1.222.322-6.112.322-6.112.322s-4.877 0-6.112-.335a1.958 1.958 0 01-1.377-1.377c-.322-1.21-.322-3.757-.322-3.757s0-2.535.322-3.757c.18-.67.72-1.21 1.377-1.39 1.222-.322 6.112-.322 6.112-.322s4.89 0 6.112.335c.67.18 1.197.708 1.377 1.377.335 1.222.322 3.77.322 3.77z" fill="#fff"/></svg>