<?xml version="1.0" standalone="no"?>
<!DOCTYPE svg PUBLIC "-//W3C//DTD SVG 20010904//EN"
 "http://www.w3.org/TR/2001/REC-SVG-20010904/DTD/svg10.dtd">
<svg version="1.0" xmlns="http://www.w3.org/2000/svg"
 width="966.000000pt" height="966.000000pt" viewBox="0 0 966.000000 966.000000"
 preserveAspectRatio="xMidYMid meet">
<metadata>
Created by potrace 1.11, written by Peter Selinger 2001-2013
</metadata>
<g transform="translate(0.000000,966.000000) scale(0.100000,-0.100000)"
fill="#000000" stroke="none">
<path d="M4657 9654 c-1 -1 -56 -5 -122 -8 -66 -4 -133 -8 -150 -10 -16 -2
-61 -7 -100 -11 -38 -3 -72 -8 -75 -10 -3 -1 -36 -6 -75 -10 -38 -4 -72 -8
-76 -10 -3 -2 -28 -7 -55 -10 -27 -4 -101 -18 -164 -31 -610 -131 -1134 -348
-1663 -691 -54 -34 -103 -67 -110 -73 -7 -5 -66 -49 -132 -98 -255 -187 -587
-497 -765 -712 -19 -24 -40 -48 -45 -54 -6 -6 -28 -33 -50 -61 -22 -27 -46
-56 -52 -63 -31 -33 -197 -270 -275 -392 -295 -464 -524 -1018 -633 -1530 -9
-41 -18 -84 -21 -95 -6 -29 -32 -183 -39 -230 -4 -22 -8 -51 -10 -65 -3 -14
-7 -50 -11 -80 -3 -30 -7 -65 -9 -77 -20 -128 -27 -668 -12 -883 5 -63 10
-117 12 -120 1 -3 5 -37 9 -75 4 -39 8 -81 10 -95 3 -14 10 -59 16 -100 69
-449 215 -909 425 -1345 69 -144 206 -389 260 -465 19 -28 35 -52 35 -55 0
-28 310 -434 450 -589 66 -75 295 -304 355 -356 33 -29 76 -67 95 -84 180
-159 443 -348 690 -496 106 -63 450 -243 450 -235 0 2 26 -9 57 -24 151 -75
592 -229 734 -256 11 -2 29 -7 39 -10 10 -3 27 -8 37 -10 10 -2 56 -12 103
-23 89 -21 145 -32 298 -56 30 -5 84 -13 152 -21 25 -3 61 -8 80 -10 157 -20
678 -28 865 -12 200 16 379 38 500 62 39 8 81 16 95 19 208 37 635 161 800
232 19 9 44 19 55 24 495 202 978 497 1345 820 227 199 385 362 585 601 50 59
187 242 247 329 62 91 188 287 188 294 0 2 24 46 54 98 215 380 428 956 500
1348 2 14 7 36 10 50 6 28 14 67 22 120 2 19 9 58 14 85 5 28 14 95 20 150 6
55 13 116 15 135 10 76 19 313 18 460 0 195 -8 334 -28 530 -22 207 -83 533
-130 695 -68 235 -141 457 -184 555 -8 19 -15 37 -16 40 -2 5 -3 8 -60 140
-88 205 -281 550 -423 755 -306 441 -665 816 -1082 1129 -63 47 -119 89 -125
94 -5 4 -53 36 -105 70 -52 34 -100 67 -107 72 -7 6 -15 10 -17 10 -3 0 -29
15 -58 34 -110 70 -414 228 -548 285 -380 162 -791 286 -1115 336 -131 20
-237 35 -290 40 -33 3 -73 8 -90 10 -83 12 -607 28 -618 19z m3681 -2045 c-3
-8 -215 -340 -335 -527 -46 -70 -97 -149 -113 -177 -17 -27 -53 -84 -80 -125
-27 -41 -67 -104 -90 -140 -23 -36 -58 -91 -78 -122 -20 -32 -58 -90 -83 -130
-26 -40 -93 -145 -149 -233 -57 -88 -120 -185 -139 -217 -59 -93 -206 -323
-312 -488 -55 -85 -114 -177 -131 -205 -18 -27 -59 -93 -93 -145 -34 -52 -93
-144 -132 -205 -402 -629 -633 -991 -668 -1045 -23 -36 -79 -123 -125 -195
-46 -71 -103 -161 -128 -200 -25 -38 -55 -86 -67 -105 -20 -31 -48 -74 -167
-260 -29 -45 -166 -259 -339 -530 -16 -25 -74 -115 -128 -200 -55 -85 -117
-182 -138 -216 l-37 -61 -1748 0 c-1273 0 -1746 3 -1741 11 4 6 52 81 108 166
55 85 152 235 215 332 63 98 141 217 172 265 133 206 184 285 193 301 6 9 12
19 15 22 3 3 34 50 70 105 104 163 186 290 345 535 34 52 88 136 120 185 32
50 92 142 133 205 141 217 227 350 337 520 61 94 162 250 225 348 64 97 143
219 175 270 33 51 92 141 130 200 39 59 135 209 215 332 79 124 147 227 150
230 4 3 9 12 13 20 4 8 63 101 131 205 68 105 150 231 182 280 32 50 99 153
150 230 82 127 226 349 372 575 30 47 71 110 91 140 l36 55 1722 0 c948 0
1722 -3 1721 -6z"/>
</g>
</svg>
